Coordinates
version=1
nRows=40
nColumns=38
inDegrees=no

Units are S.I. units (second, meters, Newtons, ...)
If the header above contains a line with 'inDegrees', this indicates whether rotational values are in degrees (yes) or radians (no).

endheader
time	pelvis_tilt	pelvis_list	pelvis_rotation	pelvis_tx	pelvis_ty	pelvis_tz	hip_flexion_r	hip_adduction_r	hip_rotation_r	knee_angle_r	ankle_angle_r	subtalar_angle_r	mtp_angle_r	hip_flexion_l	hip_adduction_l	hip_rotation_l	knee_angle_l	ankle_angle_l	subtalar_angle_l	mtp_angle_l	lumbar_extension	lumbar_bending	lumbar_rotation	arm_flex_r	arm_add_r	arm_rot_r	elbow_flex_r	pro_sup_r	wrist_flex_r	wrist_dev_r	arm_flex_l	arm_add_l	arm_rot_l	elbow_flex_l	pro_sup_l	wrist_flex_l	wrist_dev_l
1.31	-1.5219	1.48972	-0.247285	0.797353	0.545589	0.951059	0.000492122	0.15906	0.11632	0.229089	0.051745	0	0	0.539666	-0.266277	-0.209514	0.986806	0.010464	0	0	-0.153727	0.0721777	0.0102703	-0.283073	-0.0787459	-0.499071	0.52542	1.04363	0	0	-0.0957348	-0.351198	0.427026	0.624581	0.753091	0	0
1.32	-1.53404	1.49294	-0.24042	0.796917	0.537389	0.950622	-0.0079016	0.154412	0.121675	0.229032	0.0590869	0	0	0.535572	-0.267114	-0.232896	0.928961	0.0167648	0	0	-0.15507	0.0679457	0.0133545	-0.277671	-0.0765889	-0.492289	0.526822	1.03963	0	0	-0.0950458	-0.351035	0.42596	0.62271	0.754408	0	0
1.33	-1.55048	1.49598	-0.228618	0.796617	0.529048	0.950089	-0.016402	0.149597	0.126038	0.228426	0.066745	0	0	0.530132	-0.267229	-0.258327	0.868483	0.0223325	0	0	-0.155935	0.0641364	0.0160806	-0.272858	-0.0745804	-0.485616	0.528161	1.03512	0	0	-0.0943926	-0.350418	0.424423	0.620627	0.75565	0	0
1.34	-1.57356	1.49881	-0.209163	0.796511	0.52056	0.949443	-0.0247846	0.144657	0.129196	0.227408	0.0744928	0	0	0.524091	-0.266389	-0.284914	0.806524	0.0272232	0	0	-0.156176	0.0608761	0.0181027	-0.268363	-0.0726233	-0.479978	0.529338	1.02994	0	0	-0.0938672	-0.349378	0.422351	0.618565	0.756911	0	0
1.35	-1.60652	1.50157	-0.178916	0.796571	0.511865	0.948669	-0.0326245	0.139479	0.131104	0.226499	0.0825031	0	0	0.517757	-0.264462	-0.313143	0.743507	0.0315723	0	0	-0.155285	0.057942	0.0193934	-0.264699	-0.0711836	-0.472954	0.530231	1.02238	0	0	-0.0938289	-0.347959	0.419683	0.616418	0.758767	0	0
1.36	-1.66343	1.50351	-0.123164	0.796876	0.503005	0.947644	-0.0386062	0.13502	0.131069	0.226429	0.090818	0	0	0.513396	-0.261773	-0.340601	0.681607	0.0364918	0	0	-0.152439	0.0564583	0.0194569	-0.262234	-0.0704014	-0.465616	0.531999	1.01345	0	0	-0.0944403	-0.346349	0.417514	0.614889	0.760642	0	0
1.37	-1.71552	1.507	-0.0720613	0.797328	0.494039	0.946685	-0.0445465	0.128229	0.12955	0.227474	0.100276	0	0	0.506524	-0.255299	-0.369555	0.617228	0.0407263	0	0	-0.150322	0.0529904	0.0199818	-0.256893	-0.0670948	-0.476469	0.528428	1.04235	0	0	-0.0940515	-0.344569	0.415515	0.612925	0.7598	0	0
1.38	-1.80255	1.50948	0.015382	0.79807	0.485006	0.945447	-0.0477512	0.122236	0.12624	0.229999	0.110208	0	0	0.502639	-0.247416	-0.39487	0.554959	0.0461757	0	0	-0.145864	0.0508061	0.0190229	-0.255369	-0.0667234	-0.469874	0.530534	1.0331	0	0	-0.0941387	-0.342628	0.414718	0.611484	0.756415	0	0
1.39	-1.90295	1.51286	0.11653	0.798996	0.475902	0.944159	-0.0498189	0.114481	0.122125	0.234284	0.120876	0	0	0.497859	-0.235482	-0.417439	0.491539	0.0519168	0	0	-0.141154	0.0470854	0.0177541	-0.25277	-0.0657148	-0.469192	0.530348	1.03669	0	0	-0.0943052	-0.340255	0.411433	0.609441	0.755558	0	0
1.4	-2.01704	1.51758	0.232537	0.800176	0.466627	0.942888	-0.0520152	0.104221	0.116029	0.239411	0.132337	0	0	0.490643	-0.217199	-0.431918	0.424064	0.0565767	0	0	-0.136501	0.0411767	0.0147012	-0.250115	-0.0654305	-0.463974	0.529288	1.03248	0	0	-0.095222	-0.336459	0.40017	0.606111	0.766674	0	0
1.41	-2.17105	1.52162	0.388825	0.801488	0.457251	0.94149	-0.0526497	0.0934548	0.110244	0.245966	0.144301	0	0	0.483122	-0.195475	-0.434961	0.354931	0.060581	0	0	-0.130515	0.0346845	0.0118108	-0.248227	-0.0650653	-0.460182	0.528816	1.02859	0	0	-0.0957469	-0.333931	0.395004	0.603696	0.769599	0	0
1.42	-2.34445	1.52628	0.564045	0.802922	0.447763	0.940234	-0.0534838	0.0807462	0.104823	0.254928	0.156564	0	0	0.469133	-0.167989	-0.420574	0.276671	0.0591364	0	0	-0.125753	0.0263052	0.00910126	-0.24572	-0.0647551	-0.456666	0.52758	1.02517	0	0	-0.0960376	-0.331704	0.390688	0.60081	0.771241	0	0
1.43	-2.5399	1.53077	0.759714	0.804279	0.437999	0.939054	-0.0548661	0.0669604	0.0991219	0.266272	0.169066	0	0	0.446955	-0.137623	-0.38782	0.188092	0.0488437	0	0	-0.121902	0.0169545	0.00806027	-0.244093	-0.0646936	-0.452479	0.527221	1.02155	0	0	-0.0964481	-0.329442	0.386803	0.59735	0.771761	0	0
1.44	-2.71733	1.53381	0.935548	0.805358	0.427929	0.937883	-0.0591438	0.0552575	0.0976024	0.275941	0.179657	0	0	0.419528	-0.111722	-0.343162	0.0995791	0.0324137	0	0	-0.119002	0.00893734	0.00934568	-0.243642	-0.0649535	-0.447753	0.52794	1.01591	0	0	-0.0973511	-0.327342	0.383685	0.594206	0.771772	0	0
1.45	-2.83741	1.53492	1.05339	0.806169	0.417681	0.936633	-0.0648353	0.0472983	0.0981906	0.284979	0.188327	0	0	0.395841	-0.0952884	-0.301063	0.0294919	0.0188895	0	0	-0.116384	0.00369074	0.0117215	-0.244149	-0.0658673	-0.441487	0.529917	1.00639	0	0	-0.0988706	-0.325618	0.381305	0.591681	0.772139	0	0
1.46	-2.89646	1.53472	1.11097	0.80687	0.407461	0.935329	-0.0706092	0.0425188	0.0984097	0.294502	0.195652	0	0	0.386039	-0.0880781	-0.27764	0	0.0188202	0	0	-0.114194	0.000860645	0.0141958	-0.243493	-0.0655782	-0.44354	0.529727	1.0139	0	0	-0.0998069	-0.324581	0.381303	0.589804	0.770984	0	0
1.47	-2.91597	1.53514	1.13048	0.807616	0.397312	0.934157	-0.0772941	0.0389206	0.0966396	0.30474	0.201841	0	0	0.389826	-0.0863269	-0.272199	4.61393e-10	0.028183	0	0	-0.113787	-0.00116381	0.015634	-0.242708	-0.0655131	-0.443007	0.530045	1.01779	0	0	-0.0998703	-0.323854	0.381241	0.587573	0.76965	0	0
1.48	-2.90769	1.53487	1.12349	0.808309	0.387258	0.933037	-0.0830988	0.0369765	0.0948629	0.316067	0.206463	0	0	0.410633	-0.0913126	-0.289963	0.0433446	0.0444866	0	0	-0.113369	-0.00234462	0.016183	-0.241212	-0.0651934	-0.441422	0.528759	1.01836	0	0	-0.0995988	-0.323945	0.382152	0.58526	0.767618	0	0
1.49	-2.87133	1.5354	1.08776	0.808804	0.377012	0.932058	-0.0896877	0.0357701	0.0946789	0.328475	0.210114	0	0	0.435931	-0.101074	-0.315592	0.10437	0.0556416	0	0	-0.113755	-0.00340066	0.0180025	-0.239866	-0.0646473	-0.439599	0.52639	1.01727	0	0	-0.0994699	-0.32469	0.384175	0.583607	0.765655	0	0
1.5	-2.8055	1.53591	1.02085	0.809049	0.366479	0.931087	-0.0962027	0.0355776	0.097314	0.342268	0.212616	0	0	0.461682	-0.115185	-0.343581	0.173636	0.0626249	0	0	-0.113753	-0.00384156	0.0225116	-0.239952	-0.0644308	-0.437209	0.524517	1.0152	0	0	-0.0997641	-0.325492	0.386883	0.582331	0.763067	0	0
1.51	-2.67477	1.53284	0.887689	0.809214	0.355468	0.929653	-0.100054	0.0395413	0.101678	0.359085	0.214321	0	0	0.500896	-0.146652	-0.399046	0.278144	0.0839819	0	0	-0.110637	0.000484921	0.0301002	-0.243902	-0.0657484	-0.433656	0.525418	1.01179	0	0	-0.101376	-0.325383	0.39082	0.582515	0.76039	0	0
1.52	-2.61784	1.5338	0.822698	0.808799	0.344312	0.928946	-0.103521	0.0379656	0.110127	0.380237	0.21492	0	0	0.506592	-0.156711	-0.404077	0.318966	0.0810437	0	0	-0.109097	-0.0014	0.0425242	-0.246046	-0.0659384	-0.430141	0.521933	1.00823	0	0	-0.103452	-0.326211	0.393946	0.582165	0.757772	0	0
1.53	-2.49046	1.53299	0.684941	0.808422	0.332512	0.927986	-0.107325	0.0385799	0.119783	0.403381	0.215	0	0	0.520311	-0.182743	-0.440957	0.388903	0.0964024	0	0	-0.106747	0.000818305	0.0582064	-0.251422	-0.0680889	-0.426329	0.520772	1.0032	0	0	-0.107523	-0.325457	0.39695	0.582282	0.754166	0	0
1.54	-2.39902	1.52842	0.579183	0.807706	0.320758	0.926835	-0.105109	0.0413971	0.135074	0.431898	0.213898	0	0	0.528498	-0.208592	-0.467679	0.444885	0.114635	0	0	-0.100689	0.00517187	0.0778121	-0.262312	-0.0746033	-0.396459	0.527468	0.942876	0	0	-0.113115	-0.325378	0.404328	0.584417	0.735948	0	0
1.55	-2.32855	1.52922	0.498757	0.807713	0.308582	0.926153	-0.105648	0.0368134	0.139445	0.460343	0.211426	0	0	0.523376	-0.217282	-0.473813	0.474599	0.125599	0	0	-0.0975223	0.00457756	0.0918415	-0.266713	-0.0759948	-0.39889	0.523593	0.946912	0	0	-0.119306	-0.324106	0.402934	0.58472	0.734002	0	0
1.56	-2.27979	1.5289	0.439919	0.807826	0.296269	0.925297	-0.102133	0.0322405	0.144075	0.49333	0.207133	0	0	0.518553	-0.226223	-0.483432	0.501606	0.132147	0	0	-0.092439	0.0046259	0.105261	-0.271677	-0.0776164	-0.40167	0.520131	0.94931	0	0	-0.127273	-0.322842	0.400469	0.586377	0.731928	0	0
1.57	-2.3084	1.5292	0.460251	0.808112	0.28376	0.924419	-0.0932334	0.0253301	0.146346	0.530426	0.20014	0	0	0.514525	-0.230527	-0.492519	0.520995	0.123994	0	0	-0.0859404	0.000874389	0.122581	-0.280038	-0.0753287	-0.413917	0.517805	0.951611	0	0	-0.131477	-0.323466	0.403115	0.588479	0.730076	0	0
1.58	-2.33262	1.53097	0.477667	0.808841	0.271652	0.923444	-0.079932	0.0168008	0.145802	0.575969	0.191708	0	0	0.510871	-0.232693	-0.500552	0.539009	0.10413	0	0	-0.0772727	-0.00152206	0.123481	-0.276933	-0.0776453	-0.41955	0.504879	0.976219	0	0	-0.147799	-0.32533	0.400756	0.599053	0.699618	0	0
1.59	-2.51275	1.53707	0.655569	0.809791	0.259555	0.922293	-0.0496193	-0.0101203	0.102156	0.643581	0.1832	0	0	0.510511	-0.225057	-0.502419	0.556023	0.0829342	0	0	-0.068607	-0.0136149	0.12511	-0.279281	-0.0761147	-0.420613	0.499	0.977105	0	0	-0.159177	-0.329655	0.397084	0.606992	0.695809	0	0
1.6	-2.41063	1.54028	0.556867	0.811305	0.247611	0.922898	-0.0503302	-0.00451059	0.13191	0.671579	0.154757	0	0	0.506115	-0.222563	-0.49268	0.57582	0.0705132	0	0	-0.069784	-0.0164183	0.120893	-0.277862	-0.0770417	-0.416597	0.48997	0.969703	0	0	-0.166046	-0.328265	0.386821	0.605679	0.709901	0	0
1.61	-2.76267	1.54665	0.913251	0.812595	0.23586	0.922138	-0.0138603	-0.0337162	0.0866928	0.745398	0.129082	0	0	0.510829	-0.208955	-0.482747	0.5996	0.0674962	0	0	-0.062072	-0.0321164	0.114659	-0.276582	-0.0742477	-0.414897	0.476672	0.972135	0	0	-0.177447	-0.338936	0.39678	0.620595	0.675509	0	0
1.62	-2.97513	1.55225	1.13124	0.814032	0.224186	0.922412	0.00682437	-0.0451092	0.0796727	0.801395	0.0920989	0	0	0.508189	-0.198027	-0.470439	0.619494	0.0658082	0	0	-0.0617235	-0.0422925	0.108446	-0.276559	-0.0729391	-0.409927	0.467915	0.967759	0	0	-0.183897	-0.344348	0.399272	0.625349	0.672964	0	0
1.63	-3.00569	1.55781	1.16625	0.815422	0.212828	0.923318	0.0196346	-0.0374194	0.10712	0.848053	0.0484625	0	0	0.500054	-0.19118	-0.460616	0.634	0.0625528	0	0	-0.0650577	-0.0474149	0.104158	-0.276567	-0.0738916	-0.397597	0.459866	0.949104	0	0	-0.187389	-0.347931	0.403118	0.627007	0.674512	0	0
1.64	2.25875	1.55629	2.18966	0.8168	0.201412	0.922986	0.0576667	-0.0680534	0.0736766	0.922475	0.00519288	0	0	0.492517	-0.171684	-0.457434	0.642172	0.0618512	0	0	-0.0624647	-0.064665	0.101589	-0.276103	-0.0667386	-0.42643	0.449004	0.997841	0	0	-0.191626	-0.362934	0.432213	0.641679	0.634165	0	0
1.65	1.83706	1.55161	2.61553	0.81829	0.190288	0.923204	0.0859544	-0.0781993	0.0737235	0.982711	-0.0406371	0	0	0.480418	-0.157554	-0.456801	0.646755	0.0664534	0	0	-0.0630712	-0.074996	0.0979194	-0.28044	-0.0666074	-0.415759	0.449832	0.980739	0	0	-0.194622	-0.366486	0.429394	0.641944	0.656574	0	0
1.66	1.6183	1.54808	2.83745	0.819754	0.179626	0.923843	0.108888	-0.0704763	0.100484	1.03391	-0.0890111	0	0	0.465531	-0.146309	-0.457731	0.647663	0.0750407	0	0	-0.0649802	-0.0815386	0.0956753	-0.282161	-0.066101	-0.4174	0.449036	0.985038	0	0	-0.194657	-0.371529	0.439578	0.642729	0.653962	0	0
1.67	1.45565	1.53986	3.00263	0.821151	0.169047	0.924283	0.13857	-0.0804275	0.102029	1.09012	-0.139367	0	0	0.448581	-0.130423	-0.461592	0.645096	0.0855971	0	0	-0.066062	-0.0924909	0.0931963	-0.284306	-0.0650806	-0.418961	0.451215	0.98973	0	0	-0.195645	-0.378185	0.449577	0.645439	0.650029	0	0
1.68	1.34694	1.53216	3.11386	0.822543	0.158719	0.925066	0.166274	-0.0883221	0.104841	1.14122	-0.189916	0	0	0.429956	-0.114628	-0.464466	0.639282	0.0948315	0	0	-0.0680044	-0.102253	0.089667	-0.285491	-0.0649018	-0.41868	0.454583	0.994112	0	0	-0.196351	-0.383783	0.457835	0.646843	0.644785	0	0
1.69	1.25758	1.52613	-3.07718	0.823893	0.148606	0.926238	0.190978	-0.0924591	0.108781	1.18589	-0.240094	0	0	0.410489	-0.100075	-0.464638	0.631647	0.10277	0	0	-0.0707774	-0.109683	0.0850358	-0.285385	-0.0656152	-0.415851	0.456457	0.997649	0	0	-0.196492	-0.387592	0.463586	0.645435	0.640218	0	0
1.7	1.17115	1.52187	-2.98733	0.82517	0.138684	0.927775	0.21263	-0.092739	0.112869	1.22465	-0.284742	0	0	0.39037	-0.0873296	-0.461734	0.623106	0.110046	0	0	-0.0743783	-0.114638	0.0792206	-0.283923	-0.0668578	-0.41188	0.456874	0.999086	0	0	-0.195892	-0.390023	0.46719	0.64199	0.636461	0	0
